<svg width="238" height="297" viewBox="0 0 238 297" fill="none" xmlns="http://www.w3.org/2000/svg">
<rect width="238" height="297" fill="#E5E5E5"/>
<ellipse cx="116.5" cy="184.5" rx="6.5" ry="93.5" fill="#AA4350"/>
<path d="M71.8128 162.988C-42.888 110.387 -6.46114 -87.7734 90.6928 139.854C-4.59354 -144.225 115.666 168.611 115.694 181.364C115.723 194.117 69.6055 293.848 59.1501 293.871C48.6946 293.894 -5.85581 185.226 71.8128 162.988Z" fill="#3A88B4"/>
<path d="M118.537 183.385C118.049 173.122 252.713 -209.945 146.426 163.434C267.606 -133.742 257.59 121.992 176.084 180.646C220.573 159.906 227.42 295.425 211.529 296.181C195.638 296.937 119.025 193.647 118.537 183.385Z" fill="#BE3B52" fill-opacity="0.62"/>
<line x1="117.536" y1="91.1857" x2="101.536" y2="51.1857" stroke="black"/>
<line x1="115.521" y1="90.8563" x2="127.521" y2="50.8563" stroke="black"/>
<ellipse cx="100.5" cy="51.5" rx="2.5" ry="3.5" fill="black"/>
<ellipse cx="128.5" cy="48.5" rx="3.5" ry="2.5" fill="black"/>
</svg>
